<svg width="128" height="122" viewBox="0 0 128 122" fill="none" xmlns="http://www.w3.org/2000/svg">
<g clip-path="url(#clip0_29_578)">
<path d="M5.97668 121.649L6.00318 121.398C6.00906 121.343 6.61226 115.86 8.87342 112.678C11.1347 109.496 14.2513 109.745 14.2824 109.748L14.4245 109.761L14.398 110.011C14.3921 110.066 13.7889 115.55 11.5278 118.732C9.26651 121.914 6.14994 121.665 6.11878 121.662L5.97668 121.649ZM9.02675 113.028C7.11493 115.718 6.42654 120.117 6.27923 121.223C6.91415 121.228 9.46446 121.07 11.3744 118.382C13.2842 115.694 13.9741 111.293 14.122 110.187C13.4867 110.182 10.9366 110.34 9.02675 113.028Z" fill="#F1F1F1"/>
<path d="M9.92598 114.248C8.89014 119.028 6.16328 121.59 6.16328 121.59C6.16328 121.59 5.11585 116.403 6.1517 111.623C7.18754 106.843 9.91439 104.28 9.91439 104.28C9.91439 104.28 10.9618 109.468 9.92598 114.248Z" fill="#F1F1F1"/>
<path d="M124.029 121.662C123.998 121.665 120.881 121.914 118.62 118.732C116.359 115.55 115.756 110.066 115.75 110.011L115.723 109.761L115.866 109.748C115.897 109.745 119.013 109.496 121.275 112.678C123.536 115.86 124.139 121.343 124.145 121.398L124.171 121.649L124.029 121.662ZM116.026 110.187C116.174 111.293 116.864 115.694 118.774 118.382C120.684 121.07 123.234 121.228 123.869 121.223C123.721 120.117 123.033 115.718 121.121 113.028C119.211 110.34 116.661 110.182 116.026 110.187H116.026Z" fill="#F1F1F1"/>
<path d="M120.222 114.248C121.258 119.028 123.985 121.59 123.985 121.59C123.985 121.59 125.032 116.403 123.996 111.623C122.96 106.843 120.234 104.28 120.234 104.28C120.234 104.28 119.186 109.468 120.222 114.248Z" fill="#F1F1F1"/>
<path d="M73.2374 120.506L71.4263 119.14L70.184 102.875H53.6394L52.2927 119.073L50.6725 120.525C50.5949 120.594 50.5328 120.708 50.496 120.849C50.4593 120.99 50.4502 121.148 50.4701 121.299C50.49 121.451 50.5378 121.585 50.6058 121.682C50.6737 121.778 50.7579 121.83 50.8446 121.83H73.0881C73.177 121.83 73.2631 121.775 73.3318 121.675C73.4006 121.574 73.4477 121.433 73.4653 121.277C73.4829 121.121 73.4698 120.959 73.4283 120.819C73.3867 120.678 73.3193 120.567 73.2374 120.506Z" fill="#E6E6E6"/>
<path d="M102.638 105.039H21.3667C20.9403 105.037 20.5317 104.732 20.2305 104.192C19.9293 103.651 19.7602 102.918 19.7602 102.154V81.6228H104.245V102.154C104.245 102.918 104.076 103.651 103.774 104.192C103.473 104.732 103.065 105.037 102.638 105.039Z" fill="#CCCCCC"/>
<path d="M104.33 91.3264H19.686V3.47728C19.6866 2.55536 19.8913 1.6715 20.2552 1.01961C20.6191 0.367716 21.1125 0.00103335 21.6271 0H102.389C102.903 0.00103275 103.397 0.367713 103.761 1.0196C104.124 1.67149 104.329 2.55535 104.33 3.47728V91.3264Z" fill="#3F3D56"/>
<path d="M99.2743 84.9503H24.7415C24.3447 84.9495 23.9644 84.6668 23.6838 84.1642C23.4033 83.6617 23.2455 82.9803 23.2451 82.2695V9.05683C23.2455 8.34607 23.4033 7.66464 23.6838 7.16204C23.9644 6.65945 24.3447 6.37673 24.7415 6.37592H99.2743C99.671 6.37673 100.051 6.65945 100.332 7.16204C100.612 7.66464 100.77 8.34607 100.771 9.05683V82.2695C100.77 82.9803 100.612 83.6617 100.332 84.1642C100.051 84.6668 99.671 84.9495 99.2743 84.9503Z" fill="white"/>
<path d="M127.591 122H0.197105C0.154204 122.002 0.112205 121.978 0.0776548 121.932C0.0431042 121.887 0.0179412 121.822 0.00608683 121.748C-0.00131396 121.698 -0.00217537 121.645 0.0035681 121.594C0.00931157 121.543 0.0215064 121.495 0.0392157 121.454C0.0569251 121.413 0.079676 121.379 0.105718 121.356C0.13176 121.333 0.160398 121.321 0.18943 121.321H127.575C127.62 121.318 127.665 121.343 127.701 121.391C127.738 121.439 127.764 121.508 127.776 121.587C127.782 121.636 127.782 121.688 127.775 121.737C127.769 121.787 127.756 121.833 127.738 121.873C127.721 121.912 127.698 121.944 127.673 121.967C127.647 121.989 127.619 122 127.591 122Z" fill="#CCCCCC"/>
<path d="M39.5155 34.064H27.2525V36.1271H39.5155V34.064Z" fill="#E5E5E5"/>
<path d="M39.5155 39.0674H27.2525V41.1306H39.5155V39.0674Z" fill="#E5E5E5"/>
<path d="M39.5155 44.1814H27.2525V46.2446H39.5155V44.1814Z" fill="#E5E5E5"/>
<path d="M39.5155 49.2953H27.2525V51.3585H39.5155V49.2953Z" fill="#E5E5E5"/>
<path d="M36.6109 55.7937H30.1571V57.5842H36.6109V55.7937Z" fill="white"/>
<path d="M58.5974 46.8602H58.4801V47.4904H58.5974V46.8602Z" fill="#E5E5E5"/>
<path d="M58.5974 60.918H58.4801V59.5752H58.5974V60.918ZM58.5974 58.2325H58.4801V56.8897H58.5974V58.2325ZM58.5974 55.5469H58.4801V54.2042H58.5974V55.5469ZM58.5974 52.8614H58.4801V51.5186H58.5974V52.8614ZM58.5974 50.1759H58.4801V48.8331H58.5974V50.1759Z" fill="#E5E5E5"/>
<path d="M58.5974 62.2608H58.4801V62.891H58.5974V62.2608Z" fill="#E5E5E5"/>
<path d="M71.4371 46.8602H71.3199V47.4904H71.4371V46.8602Z" fill="#E5E5E5"/>
<path d="M71.4371 60.918H71.3199V59.5752H71.4371V60.918ZM71.4371 58.2325H71.3199V56.8897H71.4371V58.2325ZM71.4371 55.5469H71.3199V54.2042H71.4371V55.5469ZM71.4371 52.8614H71.3199V51.5186H71.4371V52.8614ZM71.4371 50.1759H71.3199V48.8331H71.4371V50.1759Z" fill="#E5E5E5"/>
<path d="M71.4371 62.2608H71.3199V62.891H71.4371V62.2608Z" fill="#E5E5E5"/>
<path d="M77.9139 34.5317H77.7966V35.1619H77.9139V34.5317Z" fill="#E5E5E5"/>
<path d="M77.9139 60.9704H77.7966V59.6799H77.9139V60.9704ZM77.9139 58.3895H77.7966V57.0991H77.9139V58.3895ZM77.9139 55.8086H77.7966V54.5182H77.9139V55.8086ZM77.9139 53.2278H77.7966V51.9374H77.9139V53.2278ZM77.9139 50.647H77.7966V49.3565H77.9139V50.647ZM77.9139 48.0661H77.7966V46.7757H77.9139V48.0661ZM77.9139 45.4852H77.7966V44.1948H77.9139V45.4852ZM77.9139 42.9044H77.7966V41.614H77.9139V42.9044ZM77.9139 40.3235H77.7966V39.0331H77.9139V40.3235ZM77.9139 37.7427H77.7966V36.4523H77.9139V37.7427Z" fill="#E5E5E5"/>
<path d="M77.9139 62.2608H77.7966V62.891H77.9139V62.2608Z" fill="#E5E5E5"/>
<path d="M84.326 29.49H84.2088V30.1202H84.326V29.49Z" fill="#E5E5E5"/>
<path d="M84.326 60.9752H84.2088V59.6895H84.326V60.9752ZM84.326 58.4039H84.2088V57.1183H84.326V58.4039ZM84.326 55.8327H84.2088V54.547H84.326V55.8327ZM84.326 53.2614H84.2088V51.9758H84.326V53.2614ZM84.326 50.6902H84.2088V49.4045H84.326V50.6902ZM84.326 48.1189H84.2088V46.8333H84.326V48.1189ZM84.326 45.5477H84.2088V44.262H84.326V45.5477ZM84.326 42.9764H84.2088V41.6908H84.326V42.9764ZM84.326 40.4052H84.2088V39.1196H84.326V40.4052ZM84.326 37.834H84.2088V36.5483H84.326V37.834ZM84.326 35.2627H84.2088V33.9771H84.326V35.2627ZM84.326 32.6915H84.2088V31.4058H84.326V32.6915Z" fill="#E5E5E5"/>
<path d="M84.326 62.2608H84.2088V62.891H84.326V62.2608Z" fill="#E5E5E5"/>
<path d="M65.0465 38.4179H64.9293V39.0481H65.0465V38.4179Z" fill="#E5E5E5"/>
<path d="M65.0466 61.0391H64.9293V59.8174H65.0466V61.0391ZM65.0466 58.5957H64.9293V57.374H65.0466V58.5957ZM65.0466 56.1522H64.9293V54.9305H65.0466V56.1522ZM65.0466 53.7088H64.9293V52.4871H65.0466V53.7088ZM65.0466 51.2653H64.9293V50.0437H65.0466V51.2653ZM65.0466 48.8219H64.9293V47.6002H65.0466V48.8219ZM65.0466 46.3785H64.9293V45.1568H65.0466V46.3785ZM65.0466 43.935H64.9293V42.7133H65.0466V43.935ZM65.0466 41.4916H64.9293V40.2699H65.0466V41.4916Z" fill="#E5E5E5"/>
<path d="M65.0465 62.2608H64.9293V62.891H65.0465V62.2608Z" fill="#E5E5E5"/>
<path d="M90.8296 63.1836H52.0101C51.9779 63.1836 51.9469 63.1606 51.9242 63.1198C51.9014 63.079 51.8886 63.0237 51.8886 62.9659V29.6327C51.8886 29.575 51.9014 29.5197 51.9242 29.4788C51.9469 29.438 51.9778 29.4151 52.0101 29.4151C52.0423 29.4151 52.0732 29.438 52.096 29.4788C52.1188 29.5197 52.1316 29.575 52.1316 29.6327V62.7483H90.8296C90.8619 62.7483 90.8928 62.7712 90.9155 62.812C90.9383 62.8528 90.9511 62.9082 90.9511 62.9659C90.9511 63.0237 90.9383 63.079 90.9155 63.1198C90.8928 63.1606 90.8619 63.1836 90.8296 63.1836V63.1836Z" fill="#3F3D56"/>
<path d="M71.4318 47.1527L64.9776 38.4921L58.6115 47.0344L58.4658 46.686L64.9776 37.9482L71.401 46.5677L77.7842 34.0534L77.8099 34.0347L84.2486 29.387L84.3395 29.791L77.9263 34.42L71.4318 47.1527Z" fill="#3F3D56"/>
<path d="M58.5387 48.166C58.9413 48.166 59.2677 47.5813 59.2677 46.8601C59.2677 46.1389 58.9413 45.5543 58.5387 45.5543C58.1362 45.5543 57.8098 46.1389 57.8098 46.8601C57.8098 47.5813 58.1362 48.166 58.5387 48.166Z" fill="white"/>
<path d="M64.9776 39.6779C65.3802 39.6779 65.7065 39.0932 65.7065 38.372C65.7065 37.6508 65.3802 37.0661 64.9776 37.0661C64.575 37.0661 64.2487 37.6508 64.2487 38.372C64.2487 39.0932 64.575 39.6779 64.9776 39.6779Z" fill="white"/>
<path d="M71.4164 48.166C71.819 48.166 72.1453 47.5813 72.1453 46.8601C72.1453 46.1389 71.819 45.5543 71.4164 45.5543C71.0139 45.5543 70.6875 46.1389 70.6875 46.8601C70.6875 47.5813 71.0139 48.166 71.4164 48.166Z" fill="white"/>
<path d="M77.8552 35.5426C78.2578 35.5426 78.5842 34.9579 78.5842 34.2367C78.5842 33.5155 78.2578 32.9308 77.8552 32.9308C77.4527 32.9308 77.1263 33.5155 77.1263 34.2367C77.1263 34.9579 77.4527 35.5426 77.8552 35.5426Z" fill="white"/>
<path d="M84.2941 30.7544C84.6967 30.7544 85.023 30.1697 85.023 29.4485C85.023 28.7273 84.6967 28.1426 84.2941 28.1426C83.8915 28.1426 83.5652 28.7273 83.5652 29.4485C83.5652 30.1697 83.8915 30.7544 84.2941 30.7544Z" fill="white"/>
<path d="M43.3482 6.37592H43.1V84.9503H43.3482V6.37592Z" fill="#E5E5E5"/>
<path d="M101.866 84.1462C101.952 83.9633 102.014 83.7491 102.049 83.5184C102.083 83.2878 102.089 83.0464 102.066 82.8113C102.043 82.5762 101.991 82.353 101.915 82.1576C101.838 81.9621 101.739 81.7991 101.623 81.68L102.229 75.9785L100.675 77.1387L100.338 82.3751C100.239 82.736 100.218 83.1494 100.278 83.5367C100.337 83.9241 100.475 84.2587 100.663 84.477C100.851 84.6953 101.078 84.7822 101.3 84.7212C101.522 84.6603 101.723 84.4556 101.866 84.1462Z" fill="#FFB7B7"/>
<path d="M109.615 119.132H108.299L107.673 110.04L109.615 110.04L109.615 119.132Z" fill="#FFB7B7"/>
<path d="M109.95 121.417L105.708 121.417V121.321C105.708 120.536 105.882 119.784 106.191 119.229C106.501 118.674 106.921 118.363 107.359 118.362H107.359L109.95 118.363L109.95 121.417Z" fill="#2F2E41"/>
<path d="M102.424 119.132H101.108L100.482 110.04L102.424 110.04L102.424 119.132Z" fill="#FFB7B7"/>
<path d="M102.437 121.417L98.1946 121.417V121.321C98.1946 120.536 98.3686 119.784 98.6783 119.229C98.988 118.674 99.408 118.363 99.846 118.362H99.8461L102.437 118.363L102.437 121.417Z" fill="#2F2E41"/>
<path d="M102.316 80.73L101.028 86.0456L99.9655 116.599L102.649 116.406L103.382 101.842L105.642 88.8692L106.942 103.331L107.479 116.022L109.699 116.194L110.583 80.73H102.316Z" fill="#2F2E41"/>
<path d="M108.754 54.4999L105.021 54.6672L102.83 56.6827L102.709 71.5531L101.342 81.8199C101.342 81.8199 109.883 82.8729 111.063 81.3347L109.668 69.6056L111.539 56.9299L108.754 54.4999Z" fill="white"/>
<path d="M103.228 56.9152L102.83 56.6827C102.83 56.6827 101.565 58.137 101.685 61.653C101.685 61.653 101.638 63.4724 101.683 64.6832C101.735 66.0721 100.18 79.8733 100.18 79.8733H102.434L103.4 67.3751L103.228 56.9152Z" fill="white"/>
<path d="M111.481 84.3384C111.395 84.1556 111.333 83.9413 111.298 83.7107C111.264 83.4801 111.258 83.2387 111.281 83.0036C111.304 82.7684 111.356 82.5453 111.433 82.3498C111.509 82.1544 111.609 81.9914 111.724 81.8723L111.118 76.1707L112.672 77.3309L113.009 82.5674C113.108 82.9283 113.13 83.3416 113.07 83.729C113.01 84.1164 112.873 84.4509 112.684 84.6692C112.496 84.8875 112.269 84.9744 112.047 84.9135C111.826 84.8525 111.624 84.6479 111.481 84.3384Z" fill="#FFB7B7"/>
<path d="M110.978 57.1075L111.376 56.8751C111.376 56.8751 112.641 58.3293 112.521 61.8453C112.521 61.8453 112.568 63.6647 112.523 64.8755C112.471 66.2644 113.167 80.0656 113.167 80.0656H110.913L109.947 67.5675L110.978 57.1075Z" fill="white"/>
<path d="M109.67 48.2611C109.67 49.178 109.519 50.0743 109.234 50.8367C108.95 51.599 108.546 52.1932 108.073 52.5441C107.6 52.895 107.08 52.9868 106.578 52.8079C106.076 52.629 105.615 52.1875 105.253 51.5392C104.891 50.8908 104.645 50.0648 104.545 49.1655C104.445 48.2663 104.496 47.3342 104.692 46.4871C104.888 45.64 105.219 44.9159 105.645 44.4065C106.071 43.8971 106.571 43.6253 107.083 43.6253C107.422 43.6237 107.757 43.7419 108.071 43.9728C108.384 44.2038 108.669 44.5432 108.91 44.9715C109.15 45.3999 109.341 45.9088 109.471 46.4693C109.602 47.0297 109.669 47.6307 109.67 48.238C109.67 48.2457 109.67 48.2534 109.67 48.2611Z" fill="#FFB7B7"/>
<path d="M104.504 42.0344C104.807 40.8666 105.393 41.0975 105.906 41.4933C106.556 41.2351 107.174 40.4622 107.874 40.9193C108.563 42.716 110.879 42.1874 110.386 45.1124C110.385 45.8133 111.122 45.4053 110.994 46.5532C111.384 48.7623 109.585 52.9461 108.552 52.0651C108.807 51.2264 109.391 49.3213 108.506 49.1324C106.602 52.3061 108.309 43.089 105.917 45.7694C105.125 47.0681 104.041 43.3333 104.504 42.0344Z" fill="#2F2E41"/>
</g>
<defs>
<clipPath id="clip0_29_578">
<rect width="127.78" height="122" fill="white"/>
</clipPath>
</defs>
</svg>
