<svg width="128" height="122" viewBox="0 0 128 122" fill="none" xmlns="http://www.w3.org/2000/svg">
<g clip-path="url(#clip0_29_443)">
<path d="M77.4816 36.7637C77.6406 36.7729 77.7979 36.7205 77.9324 36.6138C78.0669 36.507 78.1719 36.351 78.2333 36.1669C78.2947 35.9827 78.3095 35.7794 78.2756 35.5844C78.2418 35.3893 78.161 35.2121 78.0441 35.0766C78.0245 34.9791 78.0105 34.909 77.9909 34.8114C77.9979 34.7902 78.005 34.769 78.012 34.7478C78.7266 32.611 81.1484 32.6257 81.8569 34.7657C82.4858 36.6651 83.2864 38.5676 83.4835 40.5759C83.5703 41.4635 83.5337 42.3634 83.3753 43.2354C84.8523 39.195 85.6192 34.8035 85.6242 30.3588C85.6245 29.2435 85.5751 28.129 85.4761 27.0205C85.3944 26.1119 85.281 25.2096 85.1359 24.3139C84.3443 19.4537 82.6446 14.8983 80.1765 11.0218C78.9819 10.2044 78.0159 8.94745 77.4085 7.42033C77.1884 6.87138 77.0329 6.28537 76.9468 5.68054C77.0815 5.70271 77.4549 3.12903 77.3533 2.97113C77.541 2.61376 77.8772 2.43612 78.0823 2.0874C79.1023 0.353098 80.5076 0.655918 81.2413 3.0127C82.8085 4.00465 82.8237 5.64973 81.862 7.23193C81.2502 8.23853 81.1662 9.60058 80.6294 10.6782C80.6846 10.7669 80.742 10.8528 80.7973 10.9414C81.8068 12.5694 82.6867 14.3176 83.4244 16.1608C83.2157 14.1165 83.5238 11.6536 84.0491 10.066C84.647 8.25711 85.7677 6.73365 86.7547 5.16986C87.9401 3.2915 90.371 4.11126 90.5799 6.49236C90.5819 6.51542 90.5839 6.53846 90.5858 6.5615C90.4392 6.66521 90.2957 6.77529 90.1553 6.89174C89.9789 7.03953 89.8423 7.25068 89.7632 7.49753C89.6842 7.74439 89.6664 8.01543 89.7123 8.27515C89.7582 8.53487 89.8656 8.77115 90.0203 8.95303C90.1751 9.13492 90.3701 9.25392 90.5798 9.29445L90.6013 9.2986C90.549 9.96116 90.4567 10.6178 90.3251 11.2628C91.5912 17.4032 88.8578 19.6396 84.9548 19.7401C84.8686 19.7955 84.7847 19.8509 84.6985 19.9035C85.4396 22.5373 85.9045 25.2808 86.0814 28.0649C86.1816 29.7075 86.1757 31.3576 86.0638 32.9989L86.0704 32.9408C86.3532 31.1156 87.1296 29.4687 88.2685 28.2783C89.96 26.5357 92.3498 25.894 94.1747 24.4933C95.0531 23.8191 96.1788 24.6904 96.0254 25.9676C96.023 25.988 96.0205 26.0084 96.018 26.0288C95.746 26.1677 95.4811 26.3278 95.2249 26.508C95.0783 26.6117 94.9348 26.7218 94.7944 26.8382C94.6181 26.986 94.4814 27.1972 94.4023 27.444C94.3233 27.6909 94.3055 27.9619 94.3514 28.2217C94.3973 28.4814 94.5047 28.7177 94.6595 28.8995C94.8143 29.0814 95.0093 29.2004 95.2189 29.241L95.2404 29.2451C95.2559 29.2479 95.2691 29.2507 95.2846 29.2535C94.8198 30.6452 94.1674 31.9263 93.356 33.0405C92.5644 38.4008 89.1641 38.9094 85.527 37.3484H85.5247C85.1257 39.5231 84.5475 41.64 83.7994 43.6648H77.636C77.6139 43.5789 77.594 43.4902 77.5742 43.4044C78.1447 43.4493 78.7174 43.4065 79.2796 43.2769C78.8223 42.5733 78.365 41.864 77.9077 41.1604C77.8975 41.1472 77.888 41.1334 77.879 41.1188C77.6471 40.7587 77.4129 40.4013 77.1809 40.0412L77.1808 40.0407C77.1685 38.9368 77.2695 37.8354 77.4814 36.7638L77.4816 36.7637Z" fill="#F2F2F2"/>
<path d="M97.2703 16.9828C96.1243 11.743 105.367 7.24982 107.795 11.4694C108.132 10.8695 109.38 10.5051 109.952 10.6892C110.524 10.8732 111.005 11.3332 111.475 11.7786C112.121 12.4006 112.79 13.0447 113.186 13.939C113.585 14.8297 113.647 16.0443 113.11 16.8172C112.684 17.4318 111.428 17.8293 110.788 17.9913C110.342 18.1054 109.967 18.1974 109.644 18.2636C109.35 17.7338 109.215 17.0914 109.262 16.4491C109.045 16.633 108.863 16.8748 108.729 17.1573C108.595 17.4399 108.512 17.7561 108.487 18.0833C108.479 18.2195 112.094 34.9031 112.094 34.9031C111.66 35.2132 111.203 35.4708 110.73 35.6723C109.793 33.8777 109.076 31.9177 108.602 29.8572C108.493 31.235 108.507 32.6237 108.643 33.9977C108.715 34.7682 108.819 35.5335 108.954 36.2907C104.657 37.4537 98.1948 37.0709 95.3832 32.1244C95.3827 32.1039 95.3822 32.0834 95.3818 32.0629C95.3796 31.8677 95.3233 31.6795 95.2227 31.5305C95.122 31.3815 94.9831 31.2811 94.8299 31.2464C94.6767 31.2117 94.5186 31.2449 94.3827 31.3403C94.2469 31.4357 94.1417 31.5874 94.0852 31.7694C94.017 31.9876 93.9542 32.1765 93.8982 32.3268C93.0793 28.6536 94.1388 24.4027 97.2703 16.9828Z" fill="#2F2E41"/>
<path d="M89.9588 104.829V105.001C89.9534 104.944 89.9534 104.886 89.9588 104.829Z" fill="#2F2E41"/>
<path d="M94.1665 75.1758C94.2757 75.1387 94.387 75.1116 94.4993 75.0947C94.3703 75.1211 94.2594 75.1481 94.1665 75.1758Z" fill="#2F2E41"/>
<path d="M94.0691 75.2069C94.0986 75.1965 94.1315 75.1861 94.1665 75.1758C94.1339 75.1864 94.1026 75.1942 94.0691 75.2069Z" fill="#2F2E41"/>
<path d="M125.156 121.999H109.407C109.182 121.774 109.026 121.459 108.964 121.107C108.903 120.755 108.94 120.387 109.069 120.065C109.5 118.828 108.657 117.697 108.657 117.697C108.37 117.276 108.171 116.774 108.077 116.234C107.983 115.694 107.997 115.133 108.117 114.601C108.534 112.773 106.899 107.615 106.899 107.615C106.899 107.615 106.017 114.276 104.937 121.999H89.9588C89.7079 121.463 89.5756 120.853 89.5756 120.232C89.5756 119.61 89.7079 119 89.9588 118.464C90.8317 116.608 89.9588 116.252 89.9588 116.252C89.9588 116.252 89.0859 114.175 89.9588 112.667C90.8317 111.159 89.9588 105.001 89.9588 105.001C89.9917 105.273 90.2403 104.778 90.6232 103.74C91.2061 102.161 92.0968 99.3217 92.9968 96.025C93.6402 93.6721 94.2888 91.0832 94.8309 88.5521H94.8322C94.9743 87.8872 95.109 87.2283 95.2362 86.5754C95.4848 85.295 95.698 84.0509 95.8598 82.8827C96.2111 80.3665 96.3269 78.205 96.0572 76.7992C95.8335 75.6293 95.3441 74.9842 94.4994 75.0947C94.952 75.0007 95.6151 74.9116 96.4322 74.8274C96.5795 74.8126 96.7321 74.7977 96.89 74.7812C102.984 74.2037 116.06 73.8721 116.06 73.8721L120.065 82.8662L125.137 94.2595C125.137 94.2595 124.999 109.543 125.156 121.999Z" fill="#2F2E41"/>
<path d="M108.346 34.9977L99.1184 32.5431L97.2863 37.1678L91.1165 41.6473C91.1165 41.6473 95.0935 62.0394 95.0708 64.9074C95.0132 72.1889 85.7228 88.5119 92.7401 87.2561C99.7575 86.0004 101.183 80.7406 103.436 81.5723C105.467 82.3224 107.948 85.6591 109.609 83.2727C111.27 80.8862 111.855 83.6419 112.905 83.7372C113.404 83.7824 113.104 80.7238 114.359 83.8322C115.615 86.9407 122.274 82.7564 120.017 79.9261C116.258 75.2125 115.494 40.4654 115.494 40.4654L111.31 38.8509L108.346 34.9977Z" fill="#E6E6E6"/>
<path d="M90.942 109.053C91.3128 108.499 91.4964 107.785 91.4538 107.063C91.4112 106.342 91.1457 105.669 90.7139 105.189C90.6249 105.094 90.5298 105.007 90.4294 104.931L91.9722 95.4357L88.4056 92.7588L87.4135 106.053C87.1941 106.599 87.125 107.221 87.2171 107.822C87.3092 108.423 87.5573 108.968 87.9226 109.374C88.1323 109.602 88.3758 109.776 88.6391 109.886C88.9024 109.996 89.1805 110.04 89.4574 110.016C89.7343 109.991 90.0046 109.898 90.2529 109.743C90.5012 109.587 90.7227 109.372 90.9046 109.109C90.9173 109.09 90.9297 109.072 90.942 109.053Z" fill="#A0616A"/>
<path d="M102.016 59.0023C101.994 58.697 101.683 58.5584 101.253 58.367C100.821 58.2001 100.41 57.9561 100.033 57.6427C99.0807 56.7797 99.4557 55.8772 99.9741 54.6298C100.075 54.3872 100.181 54.1348 100.279 53.8724C100.573 53.0953 100.106 49.8893 98.8886 44.342C98.5136 42.6342 98.5149 41.4281 98.2558 40.6278C97.9979 39.8276 97.4808 39.4332 96.0716 39.3507C94.3684 39.2429 92.7005 39.9864 91.4337 41.4182C91.3995 41.4561 91.364 41.4974 91.3297 41.537C91.2653 41.6129 91.2021 41.6904 91.1403 41.7696C89.9687 43.2477 89.2983 45.2366 89.2693 47.3202L89.2627 47.675L88.972 64.6238L88.1549 79.4969L87.0286 99.985L87.8628 100.036L91.1916 100.244L91.5955 100.269L92.5534 95.2297L93.706 89.1659L94.1296 86.9384L95.444 80.0282L96.0572 76.7992L96.4322 74.8274L96.5848 74.0222L97.3295 70.1084C97.3466 70.0259 99.0597 61.5499 101.035 60.1325C101.771 59.6045 102.037 59.2976 102.016 59.0023Z" fill="#E6E6E6"/>
<path d="M124.175 108.952C123.758 108.451 123.515 107.766 123.495 107.043C123.476 106.319 123.682 105.615 124.07 105.08C124.151 104.973 124.238 104.874 124.331 104.785L121.984 95.5522L125.301 92.4104L127.426 105.494C127.691 106.008 127.813 106.617 127.773 107.226C127.732 107.836 127.532 108.412 127.204 108.864C127.015 109.119 126.788 109.325 126.535 109.47C126.283 109.615 126.01 109.696 125.733 109.709C125.456 109.722 125.179 109.666 124.919 109.545C124.659 109.424 124.42 109.239 124.217 109.002C124.202 108.986 124.188 108.969 124.175 108.952Z" fill="#A0616A"/>
<path d="M125.797 88.9182C125.797 88.9182 123.21 77.5046 123.999 76.269C124.788 75.0334 122.458 74.7921 123.462 72.491C124.466 70.1898 123.08 69.805 123.08 69.805L122.328 64.5141L120.984 51.5184L120.943 51.132L120.552 47.3511C120.443 46.2712 120.161 45.23 119.724 44.2898C119.286 43.3495 118.702 42.5296 118.006 41.8789C117.971 41.8448 117.934 41.812 117.898 41.7793C117.733 41.6298 117.564 41.4914 117.391 41.3639C116.1 40.4092 114.585 40.0482 113.105 40.3431C110.317 40.8876 111.185 42.1916 110.732 45.6848C109.998 51.3647 109.807 54.6143 110.165 55.3485C110.286 55.5957 110.413 55.8322 110.534 56.0593C111.156 57.2313 111.606 58.0768 110.733 59.0649C110.384 59.4261 109.997 59.7233 109.582 59.9476C109.172 60.197 108.874 60.3759 108.878 60.6824C108.883 60.9794 109.173 61.2475 109.95 61.6728C110.892 62.1897 111.904 64.144 112.733 66.1404C113.39 67.7496 113.976 69.4029 114.489 71.0929L121.611 96.2108L122.772 100.307L123.173 100.228L126.463 99.5735L127.289 99.4097L125.797 88.9182Z" fill="#E6E6E6"/>
<path d="M104.453 32.3696C108.61 32.3696 111.981 28.1428 111.981 22.9289C111.981 17.715 108.61 13.4883 104.453 13.4883C100.295 13.4883 96.9246 17.715 96.9246 22.9289C96.9246 28.1428 100.295 32.3696 104.453 32.3696Z" fill="#A0616A"/>
<path d="M93.1615 17.7189C92.0155 12.4791 101.259 7.9859 103.686 12.2055C104.023 11.6056 105.271 11.2412 105.843 11.4252C106.415 11.6093 106.897 12.0693 107.366 12.5147C108.012 13.1367 108.681 13.7808 109.077 14.6751C109.476 15.5658 109.538 16.7804 109.001 17.5533C108.575 18.1679 107.319 18.5654 106.68 18.7274C106.233 18.8414 105.858 18.9335 105.535 18.9997C105.242 18.4699 105.107 17.8275 105.153 17.1852C104.936 17.369 104.754 17.6109 104.62 17.8934C104.486 18.176 104.404 18.4922 104.379 18.8194C104.37 18.9555 107.986 35.6392 107.986 35.6392C107.551 35.9493 107.094 36.2068 106.621 36.4084C105.684 34.6138 104.967 32.6538 104.493 30.5932C104.384 31.9711 104.398 33.3598 104.534 34.7338C104.607 35.5043 104.71 36.2696 104.845 37.0267C100.549 38.1898 94.086 37.807 91.2744 32.8604C91.2739 32.84 91.2734 32.8195 91.273 32.799C91.2708 32.6038 91.2145 32.4155 91.1139 32.2666C91.0132 32.1176 90.8743 32.0172 90.7211 31.9825C90.5679 31.9478 90.4098 31.981 90.2739 32.0764C90.1381 32.1718 90.0329 32.3235 89.9764 32.5055C89.9082 32.7237 89.8454 32.9126 89.7894 33.0629C88.9705 29.3897 90.03 25.1388 93.1615 17.7189Z" fill="#2F2E41"/>
<path d="M55.8269 50.3403C55.6679 50.3495 55.5105 50.2972 55.3761 50.1904C55.2416 50.0836 55.1365 49.9276 55.0752 49.7435C55.0138 49.5594 54.999 49.356 55.0328 49.161C55.0667 48.966 55.1475 48.7887 55.2644 48.6533C55.2839 48.5557 55.298 48.4856 55.3175 48.3881C55.3105 48.3669 55.3035 48.3456 55.2964 48.3244C54.5818 46.1876 52.1601 46.2024 51.4516 48.3424C50.8227 50.2417 50.0221 52.1443 49.8249 54.1525C49.7381 55.0402 49.7747 55.94 49.9332 56.812C48.4562 52.7716 47.6892 48.3802 47.6843 43.9355C47.684 42.8201 47.7334 41.7056 47.8323 40.5972C47.9141 39.6885 48.0275 38.7863 48.1725 37.8906C48.9642 33.0303 50.6638 28.4749 53.132 24.5984C54.3265 23.7811 55.2926 22.5241 55.9 20.997C56.12 20.448 56.2755 19.862 56.3617 19.2572C56.2269 19.2794 55.8536 16.7057 55.9552 16.5478C55.7674 16.1904 55.4313 16.0128 55.2262 15.6641C54.2062 13.9298 52.8008 14.2326 52.0672 16.5894C50.4999 17.5813 50.4848 19.2264 51.4464 20.8086C52.0582 21.8152 52.1423 23.1772 52.6791 24.2549C52.6239 24.3435 52.5664 24.4294 52.5112 24.5181C51.5016 26.1461 50.6217 27.8942 49.8841 29.7375C50.0928 27.6931 49.7847 25.2303 49.2594 23.6427C48.6615 21.8338 47.5408 20.3103 46.5538 18.7465C45.3684 16.8682 42.9374 17.6879 42.7286 20.069C42.7266 20.0921 42.7246 20.1151 42.7227 20.1382C42.8693 20.2419 43.0128 20.352 43.1532 20.4684C43.3295 20.6162 43.4662 20.8273 43.5453 21.0742C43.6243 21.321 43.6421 21.5921 43.5962 21.8518C43.5503 22.1115 43.4429 22.3478 43.2881 22.5297C43.1333 22.7116 42.9383 22.8306 42.7287 22.8711L42.7072 22.8753C42.7594 23.5378 42.8517 24.1944 42.9833 24.8395C41.7172 30.9798 44.4507 33.2163 48.3537 33.3167C48.4398 33.3721 48.5238 33.4275 48.6099 33.4802C47.8688 36.114 47.404 38.8575 47.227 41.6416C47.1269 43.2842 47.1328 44.9342 47.2447 46.5756L47.2381 46.5174C46.9553 44.6922 46.1789 43.0454 45.04 41.8549C43.3485 40.1124 40.9587 39.4707 39.1338 38.07C38.2554 37.3958 37.1297 38.2671 37.283 39.5443C37.2855 39.5646 37.288 39.585 37.2905 39.6054C37.5625 39.7444 37.8274 39.9044 38.0835 40.0847C38.2301 40.1884 38.3736 40.2985 38.514 40.4149C38.6904 40.5627 38.8271 40.7738 38.9061 41.0207C38.9852 41.2676 39.0029 41.5386 38.957 41.7983C38.9112 42.058 38.8038 42.2943 38.649 42.4762C38.4942 42.6581 38.2992 42.7771 38.0896 42.8176L38.0681 42.8218C38.0526 42.8245 38.0393 42.8273 38.0239 42.8301C38.4887 44.2219 39.1411 45.5029 39.9524 46.6172C40.7441 51.9774 44.1443 52.486 47.7815 50.925H47.7837C48.1828 53.0998 48.761 55.2166 49.5091 57.2414H55.6724C55.6945 57.1556 55.7144 57.0669 55.7343 56.981C55.1638 57.026 54.5911 56.9832 54.0289 56.8536C54.4862 56.1499 54.9434 55.4407 55.4007 54.737C55.4109 54.7239 55.4205 54.71 55.4294 54.6955C55.6614 54.3354 55.8956 53.978 56.1275 53.6178L56.1276 53.6174C56.14 52.5135 56.039 51.4121 55.8271 50.3405L55.8269 50.3403Z" fill="#F2F2F2"/>
<path d="M27.068 11.4696C26.9281 11.8784 22.6149 11.8346 22.4174 12.1986C20.8943 15.009 26.3847 26.9666 24.8616 29.7806L24.6495 30.0977C25.1463 29.8106 25.6237 29.4729 26.0766 29.088C26.1173 27.9362 26.158 26.7807 26.2016 25.6288C26.6578 26.3607 27.026 27.1725 27.2945 28.0382C27.6491 27.7248 27.94 27.1436 29.46 26.0006C30.0753 25.1529 30.7847 24.4206 31.5663 23.8262L27.068 11.4696Z" fill="#2F2E41"/>
<path d="M30.2001 34.5023C29.7241 34.1135 29.1811 33.8726 28.616 33.7997C28.0509 33.7267 27.4801 33.8238 26.951 34.0829C26.4218 34.342 25.9496 34.7556 25.5734 35.2894C25.1972 35.8232 24.928 36.4619 24.7881 37.1523L18.2335 58.5698L6.96692 50.5484C6.91745 49.6264 6.63641 48.7477 6.16412 48.0384C5.69182 47.3291 5.05253 46.8256 4.33793 46.6001C3.62333 46.3746 2.87014 46.4387 2.18638 46.7831C1.50263 47.1276 0.923434 47.7348 0.531872 48.5177C0.140309 49.3005 -0.0435041 50.2187 0.00679539 51.1406C0.0570948 52.0626 0.338924 52.9408 0.811859 53.6495C1.28479 54.3581 1.92454 54.8608 2.63934 55.0852C3.35414 55.3097 4.10727 55.2446 4.79072 54.8991C7.16336 58.0748 17.4496 71.0949 21.7081 66.0076C25.2875 61.7315 30.453 45.1589 31.6965 39.4361C31.8957 38.5209 31.8581 37.5501 31.5892 36.6635C31.3203 35.7769 30.8339 35.0201 30.2001 34.5023Z" fill="#FFB6B6"/>
<path d="M17.8924 66.9052L19.9608 78.6293L35.0858 80.345L36.4758 70.1364L17.8924 66.9052Z" fill="#FFB6B6"/>
<path d="M40.9961 96.9703C40.9892 97.1383 40.9809 97.3047 40.9712 97.4727C40.8262 99.902 40.6604 102.704 40.4807 105.774C40.1975 110.647 39.8811 116.195 39.5619 121.999H7.83713L13.9898 98.8076C13.9898 98.8076 16.4741 97.0923 15.2093 94.2108C13.9445 91.3293 16.4332 93.6256 16.4564 89.5104C16.4795 85.3952 18.7096 81.0172 18.7096 81.0172L19.0757 74.7864L19.2844 74.7916L35.7941 75.1364L36.0953 75.1433L36.6024 80.4922C39.6812 85.0867 41.2519 90.9774 40.9961 96.9703Z" fill="#2F2E41"/>
<path d="M27.3324 28.8205L34.8608 28.3341L38.3576 35.2632C38.3576 35.2632 44.9368 36.6426 44.4808 46.3651C44.0247 56.0875 36.4758 64.6191 36.4758 64.6191L36.7985 63.2317L36.2381 65.2399L36.3099 66.3675L37.0745 67.5617L37.1532 68.7967L36.4758 70.7507C36.5639 70.9277 36.6107 71.1322 36.6108 71.3409C36.6109 71.5496 36.5643 71.7542 36.4764 71.9314C36.3885 72.1086 36.2628 72.2513 36.1135 72.3435C35.9642 72.4356 35.7972 72.4734 35.6317 72.4526L24.7536 71.0855C24.506 70.2311 24.3073 69.2089 23.3145 70.9106L22.2898 70.7861L18.03 70.2686L17.7793 69.1232C17.6368 68.4723 17.6146 67.7893 17.7144 67.1261C17.8141 66.4629 18.0332 65.837 18.3549 65.2959C17.9849 63.8429 18.0818 62.2662 18.625 60.9015L18.6454 60.8503L19.0978 60.3775C19.0978 60.3775 14.1487 51.0532 19.8301 44.0303L22.1103 39.169L24.6617 35.2654L27.3324 28.8205Z" fill="white"/>
<path d="M29.2061 24.7302C33.1489 24.7302 36.3452 20.722 36.3452 15.7775C36.3452 10.833 33.1489 6.82471 29.2061 6.82471C25.2633 6.82471 22.0671 10.833 22.0671 15.7775C22.0671 20.722 25.2633 24.7302 29.2061 24.7302Z" fill="#FFB6B6"/>
<path d="M34.6283 28.6746C34.0469 28.0654 33.6423 27.2325 33.4772 26.3053C33.3452 27.4311 33.3797 28.5778 33.579 29.6879C33.1924 30.0524 32.8174 30.3987 32.4628 30.7122C32.1943 29.8464 31.8261 29.0346 31.3699 28.3028C31.3263 29.4546 31.2856 30.6102 31.2449 31.762C30.7919 32.1468 30.3146 32.4845 29.8177 32.7717L30.0299 32.4546C31.553 29.6405 27.6116 24.4608 29.1347 21.6504C29.562 20.8631 27.6319 14.6408 26.1612 14.3602C24.8532 14.1123 24.9084 14.5862 23.6411 14.9325C23.5095 14.2441 23.3052 13.5809 23.0336 12.9604C23.1059 13.6519 23.0892 14.3534 22.9842 15.0382C22.5336 15.06 22.1792 14.7 21.6994 14.608C18.6387 14.0212 18.9497 9.86939 19.8014 8.55348C20.6559 7.24125 23.4928 6.84757 24.8008 6.42107C24.92 6.27528 25.1903 6.36641 25.3095 6.22789C27.8162 3.35096 31.1688 2.87452 34.1858 4.14964C37.4032 5.50946 39.4091 8.14131 40.4387 12.1986L40.734 15.4455C40.9989 16.4895 40.6656 21.347 40.4387 22.405C39.5565 26.5174 37.6777 24.4645 34.6283 28.6746Z" fill="#2F2E41"/>
<path d="M45.0376 71.0905L44.7566 43.6402C44.7419 42.4772 44.3632 41.3681 43.7023 40.5522C43.0413 39.7363 42.151 39.279 41.2236 39.2791H41.2236C40.7438 39.2791 40.269 39.4016 39.8282 39.6392C39.3874 39.8768 38.9898 40.2245 38.6597 40.6611C38.3295 41.0977 38.0737 41.614 37.9079 42.1786C37.7421 42.7433 37.6697 43.3443 37.6951 43.9451L38.6841 72.4481L38.7029 89.7994C38.12 90.1094 37.6273 90.6369 37.2918 91.3103C36.9563 91.9836 36.7942 92.7702 36.8276 93.5631C36.861 94.356 37.0882 95.1168 37.4783 95.7421C37.8685 96.3675 38.4027 96.827 39.0084 97.0583C39.6141 97.2897 40.2619 97.2816 40.8637 97.0351C41.4656 96.7887 41.9924 96.3159 42.3726 95.6809C42.7527 95.0459 42.9677 94.2796 42.9885 93.486C43.0092 92.6924 42.8347 91.9101 42.4885 91.2452L45.0376 71.0905Z" fill="#FFB6B6"/>
<path d="M81.8829 106.605C81.8829 106.605 81.4483 116.409 81.2486 122H66.284C65.976 116.912 65.8723 113.173 65.8723 113.173L65.0534 122H49.9272L48.9894 105.652L53.5212 91.5652C53.5212 91.5652 78.08 89.4293 80.3581 92.1389C82.6346 94.8466 81.8829 106.605 81.8829 106.605Z" fill="#2F2E41"/>
<path d="M68.6499 24.1333C73.1643 24.1333 76.824 19.5439 76.824 13.8825C76.824 8.22115 73.1643 3.63171 68.6499 3.63171C64.1354 3.63171 60.4758 8.22115 60.4758 13.8825C60.4758 19.5439 64.1354 24.1333 68.6499 24.1333Z" fill="#FFB6B6"/>
<path d="M78.1776 10.5516C77.338 11.0317 76.794 14.5088 76.1341 13.7005C75.4742 12.8921 75.5182 11.8402 74.6285 11.5418C73.9101 11.2999 73.1369 11.5764 72.4815 12.0125C72.3645 12.0894 72.2511 12.1731 72.1405 12.2563C72.0675 12.1952 71.9949 12.1376 71.9169 12.0845C71.3307 11.6911 70.6465 11.5946 70.0053 11.8149C70.512 12.0277 70.9525 12.4349 71.2646 12.9789C71.0453 13.1632 70.8231 13.348 70.5958 13.5118C68.6974 14.8856 65.996 11.8982 63.9978 10.7759C65.2494 13.7214 64.6331 14.9413 63.5463 17.9877L63.5088 18.1612C63.5705 17.3977 61.6865 16.8287 61.7958 17.9035C61.8734 18.6666 62.4 20.3627 62.6949 21.0365C60.5939 17.99 59.1582 14.2619 59.4612 10.4161C59.5271 9.60822 59.5072 8.75581 59.8395 8.05462C60.1721 7.35704 60.8656 6.86751 61.4791 7.13353C61.4271 5.90706 61.6412 4.68584 62.0984 3.59972C62.5557 2.5136 63.2391 1.60316 64.076 0.965202C64.9129 0.327244 65.872 -0.0143882 66.8513 -0.0233775C67.8307 -0.0323668 68.7937 0.291625 69.6379 0.914152C70.4224 1.49142 71.0773 2.30787 71.7963 3.01212C72.5154 3.71636 73.3442 4.33023 74.2559 4.38836C74.8343 4.42335 75.4637 4.24627 75.9606 4.62194C76.5363 5.05784 76.6348 5.97049 76.7212 6.84869C76.2078 6.91217 75.7211 7.16615 75.3234 7.5782C75.8546 7.51025 76.3894 7.65409 76.8516 7.98927C76.8604 7.99425 76.8688 8.00022 76.8767 8.00711C77.181 9.45848 77.1498 9.78022 78.1776 10.5516Z" fill="#2F2E41"/>
<path d="M49.9635 96.5245C56.9244 86.3065 54.5732 73.3101 51.8105 60.191L52.3362 40.81C52.362 39.8593 52.5698 38.9303 52.9421 38.1015C53.3145 37.2727 53.8403 36.5685 54.4754 36.0482L61.5816 30.2263L64.3475 25.2113L71.9716 26.1674L76.1994 31.7744L80.8791 36.2547C82.0541 37.3796 82.9482 38.9024 83.4559 40.6435C83.9636 42.3846 84.0638 44.2714 83.7446 46.0816L79.2662 71.4797C79.2662 71.4797 81.1393 84.6463 79.9964 86.1004C78.8535 87.5546 75.9086 86.1012 78.2439 87.7336C81.0465 89.6925 83.5948 89.331 82.1765 91.1096C80.7583 92.8882 82.5532 95.3609 82.5532 95.3609L49.9635 96.5245Z" fill="white"/>
<path d="M52.9396 111.375L54.1001 101.007L49.4696 99.3489L48.5537 110.365C48.1705 110.806 47.8929 111.372 47.7521 112C47.6113 112.627 47.6129 113.292 47.7568 113.918C47.9006 114.545 48.181 115.109 48.5663 115.546C48.9517 115.984 49.4267 116.278 49.9381 116.396C50.4495 116.514 50.9769 116.45 51.4611 116.213C51.9452 115.975 52.3669 115.573 52.6788 115.051C52.9906 114.529 53.1802 113.909 53.2263 113.259C53.2724 112.61 53.1731 111.957 52.9396 111.375Z" fill="#FFB6B6"/>
<path d="M61.7552 32.0953C61.7552 32.0953 48.5749 37.4749 48.2607 41.4111C47.9464 45.3473 48.0506 47.7569 46.6595 63.5079L46.7328 105.937C46.7328 105.937 55.5694 108.309 54.6632 105.773C53.7569 103.236 54.0731 102.042 54.0731 102.042C54.0731 102.042 55.9677 101.105 55.4935 98.1262C55.0192 95.1477 57.3975 80.387 57.3975 80.387L58.8986 53.9145L61.7552 32.0953Z" fill="white"/>
<path d="M78.0069 110.826L77.3893 100.384L82.0963 99.1099L82.436 110.178C82.7954 110.649 83.0429 111.237 83.1507 111.874C83.2585 112.512 83.2222 113.175 83.046 113.789C82.8698 114.402 82.5607 114.942 82.1534 115.347C81.746 115.752 81.2566 116.007 80.7402 116.082C80.2238 116.158 79.7008 116.051 79.2301 115.774C78.7594 115.497 78.3595 115.061 78.0755 114.515C77.7915 113.969 77.6347 113.335 77.6225 112.683C77.6104 112.031 77.7435 111.388 78.0068 110.826H78.0069Z" fill="#FFB6B6"/>
<path d="M73.3424 30.9932C73.3424 30.9932 86.2141 37.4417 86.3225 41.3952C86.431 45.3488 86.2014 47.7447 86.7685 63.5759L84.4839 105.908C84.4839 105.908 75.5425 107.551 76.579 105.094C77.6155 102.637 77.3622 101.42 77.3622 101.42C77.3622 101.42 75.5206 100.329 76.1491 97.3961C76.7775 94.4628 75.1737 79.5388 75.1737 79.5388L75.0556 52.9999L73.3424 30.9932Z" fill="white"/>
</g>
<defs>
<clipPath id="clip0_29_443">
<rect width="127.78" height="122" fill="white"/>
</clipPath>
</defs>
</svg>
