<svg width="128" height="122" viewBox="0 0 128 122" fill="none" xmlns="http://www.w3.org/2000/svg">
<g clip-path="url(#clip0_29_319)">
<path d="M127.28 61C127.288 67.6703 126.152 74.2964 123.919 80.6139C123.791 80.9748 123.66 81.3345 123.526 81.6931C121.161 87.9621 117.741 93.8178 113.402 99.0276C112.106 100.585 110.734 102.078 109.284 103.507C107.834 104.938 106.312 106.299 104.718 107.591C95.8259 114.819 85.0243 119.553 73.5041 121.271H73.5022C72.0336 121.489 70.5506 121.66 69.0531 121.782C67.27 121.926 65.4656 121.999 63.6399 122C55.1497 122.011 46.7436 120.388 38.9197 117.227C31.0959 114.067 24.0134 109.433 18.0921 103.601C17.676 103.193 17.2662 102.779 16.8626 102.359C15.8572 101.314 14.8901 100.237 13.9612 99.1268C13.4396 98.5024 12.9306 97.8683 12.4342 97.2246C9.37628 93.2648 6.83209 88.9632 4.85765 84.4146C4.01565 82.4773 3.28033 80.4991 2.65473 78.4879C2.60955 78.3453 2.56624 78.2027 2.52293 78.0602C2.42879 77.7534 2.33779 77.4447 2.24992 77.1343C0.752149 71.8766 -0.00457174 66.4503 -7.15995e-05 61C-7.15995e-05 27.311 28.4929 0 63.6399 0C98.7869 0 127.28 27.311 127.28 61Z" fill="#F2F2F2"/>
<path d="M26.9901 36.4614C26.8916 37.0348 26.9254 37.6219 27.0893 38.1814C27.2531 38.7409 27.5429 39.2592 27.9383 39.6997C28.3337 40.1403 28.825 40.4924 29.3777 40.7312C29.9304 40.97 30.531 41.0898 31.1373 41.082L41.296 69.415L47.778 65.145L35.2649 36.7679C35.1839 35.7926 34.7324 34.8797 33.996 34.2022C33.2596 33.5246 32.2895 33.1295 31.2696 33.0917C30.2496 33.0539 29.2506 33.3761 28.4619 33.9971C27.6731 34.6182 27.1495 35.495 26.9901 36.4614Z" fill="#A0616A"/>
<path d="M80.0123 46.0478C75.501 50.9675 64.3772 59.6375 55.2134 65.6075C53.2326 66.8979 51.3423 68.0602 49.6308 69.0329C48.4747 69.6898 47.3996 70.2583 46.4318 70.7221C45.7823 71.0323 45.0729 71.2105 44.3482 71.2457C43.6234 71.2809 42.8989 71.1722 42.22 70.9266C41.5411 70.6809 40.9224 70.3035 40.4027 69.8181C39.883 69.3326 39.4735 68.7495 39.1998 68.1053L32.8547 53.3913L35.0501 51.9962L40.4632 48.5546L41.6927 47.7749L46.7689 59.3631L52.1218 55.2447L55.445 52.6874L70.5943 41.0343L71.901 40.6625L74.9493 43.514L77.1052 45.5316L79.133 45.8691C79.4361 45.9197 79.7299 45.9792 80.0123 46.0478Z" fill="white"/>
<path d="M120.487 86.476C120.801 86.8586 121.127 87.2394 121.453 87.622C120.331 89.8303 119.069 91.9711 117.676 94.0324C117.572 93.962 117.469 93.8916 117.365 93.8212C117.349 93.8127 117.333 93.803 117.318 93.7924C116.932 93.5289 116.544 93.269 116.158 93.0055V93.0037C115.84 91.965 115.662 90.8914 115.629 89.8093C115.828 89.7656 116.008 89.6642 116.145 89.5189C116.282 89.3736 116.369 89.1915 116.394 88.9973C116.42 88.803 116.382 88.606 116.287 88.4329C116.191 88.2599 116.042 88.1191 115.861 88.0298C115.81 87.945 115.774 87.8837 115.723 87.797C115.725 87.7754 115.729 87.7519 115.731 87.7303C116.026 85.4762 119.024 84.6893 120.487 86.476Z" fill="white"/>
<path d="M123.866 78.7517C124.092 79.3473 124.298 79.9495 124.484 80.5583C124.356 80.9192 124.225 81.279 124.09 81.6375C124.04 81.448 123.987 81.2585 123.932 81.069C123.626 80.0153 123.258 78.979 122.831 77.9649C122.481 77.1329 122.093 76.3183 121.667 75.5213C119.353 71.191 116 67.4489 111.884 64.6026C110.183 64.2255 108.643 63.3575 107.473 62.1157C107.05 61.6695 106.697 61.1675 106.424 60.625C106.597 60.6015 106.77 60.569 106.94 60.5347C106.992 60.5239 107.047 60.5113 107.1 60.5005L107.12 60.4968C107.306 60.4557 107.475 60.3641 107.607 60.2331C107.739 60.1021 107.829 59.9372 107.866 59.7584C107.903 59.5796 107.885 59.3944 107.814 59.225C107.744 59.0557 107.624 58.9095 107.469 58.804C107.373 58.7372 107.275 58.6723 107.179 58.6073C107.032 58.5044 106.883 58.407 106.734 58.3059C106.719 58.2965 106.704 58.2863 106.689 58.2752C106.52 58.1597 106.35 58.0478 106.183 57.9305C106.313 57.5284 106.538 57.1603 106.84 56.8549C107.892 55.8136 109.771 55.837 110.999 56.6853C112.229 57.5335 112.846 59.0188 112.925 60.4662C112.995 61.706 112.716 62.9332 112.349 64.1298C112.441 64.1948 112.537 64.2561 112.63 64.3229C114.325 65.5271 115.892 66.8877 117.31 68.3854C116.491 66.5229 116.194 64.0937 116.407 62.4207C116.649 60.5149 117.615 58.7048 118.406 56.9018C119.353 54.7361 122.584 54.7073 123.495 56.8874C123.505 56.9091 123.514 56.9289 123.522 56.9506C123.369 57.0967 123.222 57.2483 123.081 57.4053C122.904 57.6032 122.793 57.8477 122.763 58.107C122.733 58.3662 122.786 58.6281 122.914 58.8582C123.042 59.0884 123.239 59.2761 123.481 59.3969C123.722 59.5176 123.995 59.5657 124.266 59.5349L124.294 59.5313C124.411 60.1747 124.478 60.8256 124.493 61.4786C124.517 63.3055 124.146 65.1174 123.405 66.8006C122.664 68.4838 121.568 70.0021 120.185 71.2603C120.095 71.3415 120.007 71.4209 119.914 71.4985C120.787 72.6874 121.57 73.934 122.258 75.2289C122.87 76.3703 123.407 77.5468 123.866 78.7517Z" fill="white"/>
<path d="M87.587 61.8212L87.0184 99.2531L41.0846 97.9898L48.4201 82.4691C48.3674 81.971 51.6398 78.4752 51.621 77.9573C51.5645 76.4395 52.7469 75.0336 52.9389 73.4454C53.3306 70.1699 51.0881 57.8002 52.1218 55.2447C52.5621 54.1036 53.1263 53.0099 53.8051 51.9818C54.3925 51.1299 54.995 50.556 55.5712 50.3485L57.2695 46.5549L58.7758 44.3893L70.5943 41.0343L71.901 40.6625L74.9494 43.514L77.1052 45.5316L79.133 45.8691C79.4362 45.9197 79.7299 45.9792 80.0123 46.0478C81.3725 46.3485 82.6403 46.9505 83.714 47.8056C87.2537 50.6878 87.6661 56.1092 87.587 61.8212Z" fill="white"/>
<path d="M113.966 98.972C112.671 100.53 111.298 102.023 109.849 103.451L104.882 103.455L78.1699 103.484L73.3611 103.489L70.1641 103.493L65.408 103.497L61.7496 103.5L54.9921 103.507L51.0062 103.513L42.6125 103.52L38.6058 103.525L27.5027 103.536L20.5286 103.543L18.6571 103.545C18.241 103.137 17.8311 102.723 17.4276 102.304C16.4221 101.259 15.455 100.181 14.5261 99.0713L18.401 99.0677L21.0408 99.0659L27.1524 99.0587L38.9466 99.0478L42.9325 99.0442L44.5442 99.0424H44.5499L45.8152 99.0406L46.3819 99.0388L47.8336 99.037H48.4474L52.7515 99.0334L62.0358 99.0226L66.1216 99.019L70.0341 99.0154L73.7019 99.0117L78.9645 99.0063L107.071 98.9793L113.966 98.972Z" fill="#CCCCCC"/>
<path d="M50.416 42.7672L50.4058 42.7681C49.8626 42.8165 49.3216 42.6562 48.9018 42.3223C48.4819 41.9884 48.2177 41.5083 48.1672 40.9877L47.0964 30.033C46.9026 28.0706 47.1224 26.0908 47.7429 24.2114C48.9589 20.5434 51.6048 17.4666 55.1292 15.6224C56.949 14.6727 58.9506 14.0859 61.0133 13.8976C69.4521 13.1269 72.536 14.8116 77.7488 27.1482C82.9617 39.4847 78.8212 38.1195 78.8212 38.1195C78.8473 38.3835 78.8177 38.6499 78.7341 38.9026C78.57 39.3959 78.2135 39.8092 77.7389 40.0564C77.4954 40.183 77.2279 40.2613 76.9521 40.2868C66.9757 42.7175 56.909 45.2761 50.4143 42.7673L50.416 42.7672Z" fill="#2F2E41"/>
<path d="M68.9849 24.2775C70.2372 26.0535 70.9124 28.1455 70.9251 30.2891C70.9377 32.4327 70.2874 34.5319 69.0562 36.3215C67.825 38.111 66.0681 39.5107 64.0074 40.3438C61.9467 41.1768 59.6747 41.4059 57.4784 41.002C56.0244 40.7392 54.6394 40.2024 53.4034 39.4228C52.1674 38.6432 51.1052 37.6363 50.2781 36.4604C49.0284 34.6849 48.3551 32.5945 48.3431 30.4528C48.3311 28.311 48.981 26.2138 50.2107 24.4256C51.4405 22.6374 53.1951 21.2382 55.2533 20.4045C57.3115 19.5707 59.5811 19.3397 61.7761 19.7407C63.2312 20.002 64.6177 20.5376 65.8552 21.3164C67.0926 22.0953 68.1565 23.1019 68.9849 24.2779L68.9849 24.2775Z" fill="#9E616A"/>
<path d="M43.5587 31.2501C43.4055 29.698 43.5795 28.1322 44.0701 26.6459C44.1839 23.0098 45.2845 19.7165 49.9112 19.8547C51.3414 19.1089 52.9134 18.6466 54.5338 18.495L56.8202 18.2786C56.8459 18.2762 56.8716 18.2738 56.8973 18.2715C58.4813 18.1302 60.0789 18.2893 61.5987 18.7398C63.1186 19.1903 64.531 19.9233 65.7554 20.897C66.9797 21.8707 67.992 23.066 68.7343 24.4147C69.4767 25.7634 69.9347 27.239 70.0821 28.7573L70.1036 28.9768L65.2663 29.43L63.1845 25.1597L63.2872 29.6164L60.7889 29.8514L59.739 27.697L59.7902 29.944C56.0808 33.0755 50.4558 33.2396 43.5823 31.4697L43.5587 31.2501Z" fill="#2F2E41"/>
<path d="M59.0318 41.6452C58.9906 42.0062 59.0559 42.3709 59.2203 42.6981C59.3032 42.8656 59.4101 43.0212 59.538 43.1603C59.6474 43.2787 59.7711 43.3844 59.9064 43.475C60.3071 43.7424 60.7941 43.8642 61.2801 43.8186C61.3104 43.8156 61.3406 43.812 61.3707 43.808C61.4009 43.8039 61.431 43.7991 61.461 43.7937C61.4914 43.7885 61.5215 43.7825 61.5514 43.7757C61.5813 43.7689 61.6113 43.7616 61.6413 43.7537L63.3296 43.3003L65.2217 38.2435L65.6554 42.6807L73.3323 40.6321L71.4918 21.8024L58.4071 23.0382L58.7659 23.3694C59.9582 24.4818 60.8073 25.8879 61.2196 27.433C61.6288 28.9988 61.7551 30.6201 61.593 32.2268C61.4416 33.8513 61.1278 35.4582 60.6559 37.0253C60.2452 38.4129 59.7513 39.7767 59.1769 41.1098C59.1026 41.2809 59.0538 41.4611 59.0318 41.6452Z" fill="#2F2E41"/>
<path d="M60.7765 101.013C60.5516 101.012 60.3295 100.964 60.1263 100.872L23.8779 101.758C23.5997 101.632 23.3681 101.428 23.2135 101.172C23.059 100.917 22.9888 100.623 23.0123 100.329C23.0357 100.035 23.1517 99.7545 23.3449 99.5249C23.5381 99.2952 23.7995 99.1272 24.0944 99.0429L47.8091 92.2652C48.0547 92.195 48.3148 92.1855 48.5653 92.2375L85.2479 96.523C85.5725 96.5903 85.8653 96.7575 86.0814 96.9992C86.2976 97.2408 86.4253 97.5437 86.4451 97.8614C86.4648 98.1792 86.3756 98.4945 86.1909 98.759C86.0062 99.0236 85.7363 99.223 85.4223 99.3267L61.2733 100.932C61.1135 100.985 60.9456 101.012 60.7765 101.013Z" fill="#3F3D56"/>
<path d="M62.1097 98.5939C61.946 98.594 61.7851 98.5538 61.6422 98.4773L32.2032 99.7955C32.036 99.7057 31.901 99.5696 31.8156 99.4051C31.7302 99.2406 31.6985 99.0553 31.7246 98.8733C31.7507 98.6913 31.8333 98.521 31.9618 98.3847C32.0903 98.2483 32.2586 98.1522 32.4448 98.1089L43.1024 95.6295C43.2687 95.5909 43.4428 95.5958 43.6065 95.6436L70.9742 95.6121C71.1691 95.6693 71.3397 95.7847 71.4612 95.9415C71.5826 96.0983 71.6486 96.2883 71.6493 96.4836C71.65 96.6789 71.5855 96.8693 71.4652 97.0269C71.3448 97.1845 71.1751 97.3011 70.9806 97.3596L62.3944 98.5522C62.3023 98.5799 62.2063 98.5939 62.1097 98.5939Z" fill="#2F2E41"/>
<path d="M59.011 97.09C59.5206 97.4049 60.096 97.6088 60.6967 97.6875C61.2973 97.7662 61.9087 97.7177 62.4877 97.5454C63.0668 97.3731 63.5993 97.0812 64.0479 96.6903C64.4965 96.2994 64.8502 95.8189 65.0841 95.2828L96.2443 97.6289L94.738 90.2295L62.5984 89.936C61.6327 89.619 60.5793 89.6526 59.6377 90.0304C58.6961 90.4082 57.9318 91.1039 57.4896 91.9857C57.0474 92.8675 56.9581 93.8742 57.2385 94.8149C57.5189 95.7557 58.1496 96.5651 59.011 97.09Z" fill="#A0616A"/>
<path d="M77.4159 48.9011C77.4159 48.9011 82.123 45.2916 87.7715 51.7887C91.5808 56.1702 98.9291 82.6576 99.5383 93.6337C99.5769 94.3282 99.4653 95.0229 99.2106 95.6741C98.956 96.3254 98.5637 96.9192 98.0584 97.4184C97.5531 97.9176 96.9457 98.3113 96.2743 98.575C95.6028 98.8386 94.8818 98.9664 94.1563 98.9505L77.5476 98.6734L75.6904 88.6662L88.8032 88.815L77.4159 48.9011Z" fill="white"/>
<path d="M58.7604 101.017C58.1906 101.016 57.6267 100.907 57.1016 100.695L23.5038 101.429C22.6171 101.075 21.8811 100.444 21.4146 99.6392C20.9482 98.8341 20.7787 97.9018 20.9335 96.993L19.6851 68.7108C19.8507 67.7005 20.4054 66.7866 21.2397 66.1493C22.0741 65.512 23.1274 65.1977 24.1917 65.2685L55.3834 66.5085C55.9822 66.5461 56.566 66.704 57.097 66.9718C57.628 67.2396 58.0943 67.6114 58.4658 68.0631C58.8372 68.5148 59.1054 69.0362 59.2531 69.5937C59.4007 70.1511 59.4245 70.7321 59.3228 71.2989L62.9773 97.6063C62.8054 98.5595 62.2883 99.424 61.517 100.048C60.7457 100.672 59.7696 101.015 58.7604 101.017Z" fill="#3F3D56"/>
<path d="M33.2482 16.8146L19.2267 16.7767C18.8508 16.7763 18.4901 16.9187 18.2237 17.1728C17.9572 17.4269 17.8067 17.7718 17.8051 18.1321L17.7543 35.9286C17.7535 36.2885 17.9018 36.6339 18.1666 36.8891C18.4314 37.1442 18.791 37.2882 19.1664 37.2893L26.9444 37.311L33.1898 37.3272C33.5656 37.3279 33.9262 37.1855 34.1924 36.9313C34.4587 36.6772 34.6087 36.332 34.6095 35.9719L34.6133 34.9197L34.6622 18.1772C34.663 17.8169 34.5145 17.471 34.2493 17.2155C33.9842 16.96 33.6241 16.8158 33.2482 16.8146Z" fill="#E6E6E6"/>
<path d="M32.2597 17.8777L20.2095 17.8452C19.8576 17.8448 19.5199 17.9781 19.2704 18.2159C19.0209 18.4537 18.8799 18.7767 18.8784 19.1139L18.8445 30.556C18.8421 32.0586 19.4616 33.5008 20.5671 34.5662C21.6726 35.6316 23.1739 36.2332 24.7415 36.2391L27.031 36.2445L32.207 36.2589C32.559 36.2596 32.8968 36.1264 33.1464 35.8886C33.396 35.6507 33.5369 35.3276 33.5381 34.9902L33.5419 33.8388L33.5833 19.1536C33.5841 18.8163 33.4451 18.4924 33.1969 18.2532C32.9488 18.0139 32.6117 17.8789 32.2597 17.8777Z" fill="white"/>
<path d="M30.9059 25.6958H21.5106C21.4365 25.6958 21.3632 25.7098 21.2948 25.7369C21.2263 25.7641 21.1642 25.8039 21.1118 25.8541C21.0595 25.9043 21.0179 25.9639 20.9896 26.0295C20.9612 26.095 20.9467 26.1653 20.9467 26.2363C20.9467 26.3073 20.9612 26.3776 20.9896 26.4432C21.0179 26.5087 21.0595 26.5683 21.1118 26.6185C21.1642 26.6687 21.2263 26.7085 21.2948 26.7357C21.3632 26.7629 21.4365 26.7768 21.5106 26.7768H30.9059C31.0555 26.7768 31.1989 26.7199 31.3047 26.6185C31.4104 26.5172 31.4698 26.3797 31.4698 26.2363C31.4698 26.093 31.4104 25.9555 31.3047 25.8541C31.1989 25.7527 31.0555 25.6958 30.9059 25.6958Z" fill="white"/>
<path d="M23.576 22.7324H21.5106C21.361 22.7324 21.2176 22.7894 21.1118 22.8907C21.0061 22.9921 20.9467 23.1296 20.9467 23.2729C20.9467 23.4163 21.0061 23.5538 21.1118 23.6551C21.2176 23.7565 21.361 23.8135 21.5106 23.8135H23.576C23.7256 23.8135 23.869 23.7565 23.9748 23.6551C24.0805 23.5538 24.14 23.4163 24.14 23.2729C24.14 23.1296 24.0805 22.9921 23.9748 22.8907C23.869 22.7894 23.7256 22.7324 23.576 22.7324Z" fill="white"/>
<path d="M30.9059 30.4476H21.5106C21.361 30.4476 21.2176 30.5046 21.1118 30.6059C21.0061 30.7073 20.9467 30.8448 20.9467 30.9881C20.9467 31.1315 21.0061 31.269 21.1118 31.3704C21.2176 31.4717 21.361 31.5287 21.5106 31.5287H30.9059C31.0555 31.5287 31.1989 31.4717 31.3047 31.3704C31.4104 31.269 31.4698 31.1315 31.4698 30.9881C31.4698 30.8448 31.4104 30.7073 31.3047 30.6059C31.1989 30.5046 31.0555 30.4476 30.9059 30.4476Z" fill="white"/>
<path d="M30.9059 28.0726H21.5106C21.3613 28.0726 21.2181 28.1295 21.1125 28.2307C21.0069 28.3319 20.9476 28.4691 20.9476 28.6122C20.9476 28.7554 21.0069 28.8926 21.1125 28.9938C21.2181 29.095 21.3613 29.1519 21.5106 29.1519H30.9059C31.0553 29.1519 31.1984 29.095 31.304 28.9938C31.4096 28.8926 31.4689 28.7554 31.4689 28.6122C31.4689 28.4691 31.4096 28.3319 31.304 28.2307C31.1984 28.1295 31.0553 28.0726 30.9059 28.0726Z" fill="white"/>
<path d="M29.0803 24.6437C28.4205 24.6437 27.7756 24.4562 27.2271 24.1049C26.6785 23.7535 26.251 23.2542 25.9985 22.6699C25.746 22.0857 25.68 21.4428 25.8087 20.8226C25.9374 20.2024 26.2551 19.6327 26.7216 19.1855C27.1881 18.7383 27.7825 18.4338 28.4295 18.3105C29.0766 18.1871 29.7473 18.2504 30.3568 18.4924C30.9663 18.7344 31.4873 19.1442 31.8538 19.67C32.2204 20.1958 32.416 20.814 32.416 21.4464C32.415 22.2941 32.0632 23.1068 31.4379 23.7062C30.8125 24.3056 29.9647 24.6427 29.0803 24.6437ZM29.0803 18.4712C28.4664 18.4712 27.8663 18.6457 27.3558 18.9726C26.8454 19.2995 26.4476 19.7642 26.2126 20.3078C25.9777 20.8515 25.9162 21.4497 26.036 22.0268C26.1558 22.6039 26.4514 23.134 26.8855 23.5501C27.3196 23.9662 27.8726 24.2495 28.4747 24.3643C29.0768 24.4791 29.7009 24.4202 30.2681 24.195C30.8352 23.9699 31.32 23.5885 31.6611 23.0993C32.0021 22.61 32.1842 22.0348 32.1842 21.4464C32.1832 20.6576 31.8559 19.9014 31.274 19.3436C30.6922 18.7859 29.9032 18.4721 29.0803 18.4712Z" fill="white"/>
<path d="M30.4812 22.6849C30.2508 21.5447 29.7709 20.4642 29.0732 19.5147C29.0574 19.49 29.0354 19.4697 29.0091 19.4556C28.9828 19.4415 28.9532 19.4341 28.9231 19.4341C28.8929 19.4341 28.8633 19.4415 28.837 19.4556C28.8108 19.4697 28.7887 19.49 28.7729 19.5147C28.1653 20.5334 27.7769 21.6586 27.6306 22.8238C27.6036 23.0362 27.9516 23.0343 27.9784 22.8238C28.0272 22.4462 28.1034 22.0723 28.2063 21.7048C28.2196 21.7023 28.2326 21.6985 28.2451 21.6934C28.7075 21.4709 29.2298 21.3894 29.742 21.4598C29.7464 21.4604 29.7507 21.4595 29.7552 21.4599C29.9243 21.8863 30.055 22.3257 30.1459 22.7735C30.1883 22.9839 30.5235 22.8948 30.4812 22.6849ZM28.3315 21.2961C28.4911 20.8215 28.6942 20.3614 28.9386 19.9212C29.1973 20.3 29.4219 20.6992 29.61 21.1145C29.175 21.0831 28.7383 21.1452 28.3315 21.2961Z" fill="white"/>
</g>
<defs>
<clipPath id="clip0_29_319">
<rect width="127.28" height="122" fill="white"/>
</clipPath>
</defs>
</svg>
